<?xml version="1.0" encoding="utf-8"?>
<!-- Generator: Adobe Illustrator 27.5.0, SVG Export Plug-In . SVG Version: 6.00 Build 0)  -->
<svg version="1.1" id="Layer_1" xmlns="http://www.w3.org/2000/svg" xmlns:xlink="http://www.w3.org/1999/xlink" x="0px" y="0px"
	 viewBox="0 0 6715.4 6715.4" style="enable-background:new 0 0 6715.4 6715.4;" xml:space="preserve">
<style type="text/css">
	.st0{fill:#3E9ED8;}
	.st1{fill:#41BBD8;}
	.st2{fill:#CAEBF6;}
	.st3{fill:#56C1EF;}
	.st4{fill:#F4F4F4;}
	.st5{fill:#FFFFFF;}
	.st6{fill:#4D98D3;}
	.st7{fill:#0084C6;}
	.st8{fill:#F78C21;}
	.st9{fill:#EA4A42;}
	.st10{fill:#FEDEC5;}
	.st11{fill:#E7503E;}
	.st12{fill:#F26825;}
	.st13{fill:#D72C1D;}
</style>
<g>
	<g>
		<g>
			<path class="st0" d="M1380.5,1707.9c-1,518.3,644.5,630,1008.3,397.6c363.7-232.5,2080.9-1316.9,2080.9-1316.9l-5.2,3559.9
				c0,0-1705.3,1091.8-2081.1,1316.9c-370.7,221.8-1009.4,120.8-1008.4-397.6L1380.5,1707.9z"/>
			<path class="st1" d="M1380.5,1707.9c-1,518.3,644.5,630,1008.3,397.6c363.7-232.5,2080.9-1316.9,2080.9-1316.9l-5.2,3559.9
				c0,0-1705.3,1091.8-2081.1,1316.9c-370.7,221.8-1009.4,120.8-1008.4-397.6L1380.5,1707.9z"/>
			<path class="st2" d="M1380.5,1707.9c-1,518.3,644.5,630,1008.3,397.6c363.7-232.5,2080.9-1316.9,2080.9-1316.9l-90.3-61.9
				c0,0-1616.3,1007-2061,1277.7c-191.3,116.5-430.5,127-625.3,23.6c-199.5-106.6-256.8-359.7-143.8-426.8
				c376.5-223.3,2198.4-1282.9,2198.4-1282.9l-93.9-56.3c0,0-1950.3,1126.9-2182.2,1268.2
				C1387.7,1581.2,1380.5,1707.9,1380.5,1707.9z"/>
			<path class="st3" d="M1536.2,1875.2c-62-109.1-60-230.3,13-274c376.5-223.3,2198.4-1282.9,2198.4-1282.9l-0.3,110.3l-0.7,311.9
				l-169-169.6c0,0-1824.2,1086.6-1912.5,1138.4C1512.6,1799,1536.2,1875.2,1536.2,1875.2z"/>
			<path class="st4" d="M4244.1,814.2c0,0-1481.1,919.5-1925.8,1190.2c-191.3,116.5-430.5,127-625.3,23.6
				c-70.3-37.5-123-93.4-156.8-152.9l0,0c0,0-23.6-76.1,129-165.9c88.3-51.8,2032.7-1211.5,2032.7-1211.5s-104.9,111.8,92,232.2
				C3986.7,850.3,4244.1,814.2,4244.1,814.2z"/>
			<path class="st5" d="M4244.1,814.2c0,0-1481.1,919.5-1925.8,1190.2c-191.3,116.5-430.5,127-625.3,23.6
				c-70.3-37.5-123-93.4-156.8-152.9l0,0c0,0-23.6-76.1,129-165.9c88.3-51.8,2032.7-1211.5,2032.7-1211.5s-104.9,111.8,92,232.2
				C3986.7,850.3,4244.1,814.2,4244.1,814.2z"/>
			<path class="st1" d="M1380.5,1707.9c-1,518.3,644.5,630,1008.3,397.6c363.7-232.5,2080.9-1316.9,2080.9-1316.9l-90.3-61.9
				c0,0-1616.3,1007-2061,1277.7c-191.3,116.5-430.5,127-625.3,23.6c-199.5-106.6-256.8-359.7-143.8-426.8
				c376.5-223.3,2198.4-1282.9,2198.4-1282.9l-93.9-56.3c0,0-1950.3,1126.9-2182.2,1268.2
				C1387.7,1581.2,1380.5,1707.9,1380.5,1707.9z"/>
			<path class="st6" d="M2583.6,5542.5c-87.2,54.4-151.4,93.7-200.3,122.9c-370.7,221.8-1009.4,120.8-1008.4-397.6l5.6-3559.9
				c-1,518.3,644.5,630,1008.3,397.6c46.7-30.1,115.9-74,201.1-127.9L2583.6,5542.5z"/>
			<path class="st7" d="M2583.6,5542.5c-87.2,54.4-151.4,93.7-200.3,122.9c-370.7,221.8-1009.4,120.8-1008.4-397.6l5.6-3559.9
				c-1,518.3,644.5,630,1008.3,397.6c46.7-30.1,115.9-74,201.1-127.9L2583.6,5542.5z"/>
			<path class="st8" d="M2468.5,2267.1c0,521.4,641.8,621.9,1002.6,381.2c361.2-240.7,2066-1363.9,2066-1363.9v3576.8
				c0,0-1692.5,1130.5-2066,1364.1c-367.8,230-1002.6,140.3-1002.6-381.2L2468.5,2267.1L2468.5,2267.1z"/>
			<path class="st9" d="M2468.5,2267.1c0,521.4,641.8,621.9,1002.6,381.2c361.2-240.7,2066-1363.9,2066-1363.9v3576.8
				c0,0-1692.5,1130.5-2066,1364.1c-367.8,230-1002.6,140.3-1002.6-381.2L2468.5,2267.1L2468.5,2267.1z"/>
			<path class="st10" d="M2468.5,2267.1c0,521.4,641.8,621.9,1002.6,381.2c361.2-240.7,2066-1363.9,2066-1363.9l-90.1-60.2
				c0,0-1604.4,1043.4-2046,1323.9c-190,120.5-427.6,135.8-621.2,35.1c-198.6-103.2-256-356.9-143.7-426.5
				c373.7-231.9,2182.2-1331.9,2182.2-1331.9l-93-54.6c0,0-1936.4,1170-2166.5,1316.5C2475.3,2139.7,2468.5,2267.1,2468.5,2267.1z"
				/>
			<path class="st11" d="M2623.4,2432.6c-61.9-108.5-60.1-230.6,12.6-275.8c373.7-231.9,2182.2-1331.9,2182.2-1331.9v111v313.9
				l-168.4-167.6c0,0-1810.8,1127.2-1898.5,1181C2599.8,2356.3,2623.4,2432.6,2623.4,2432.6z"/>
			<path class="st4" d="M5313,1314.5c0,0-1470.4,953.2-1912,1233.7c-190,120.5-427.6,135.8-621.2,35.1
				c-70-36.3-122.4-91.6-156.3-150.7l0,0c0,0-23.6-76.2,128-169.3c87.6-53.8,2018-1256.7,2018-1256.7s-104,114.2,91.9,231.7
				C5056.8,1355.8,5313,1314.5,5313,1314.5z"/>
			<path class="st5" d="M5313,1314.5c0,0-1470.4,953.2-1912,1233.7c-190,120.5-427.6,135.8-621.2,35.1
				c-70-36.3-122.4-91.6-156.3-150.7l0,0c0,0-23.6-76.2,128-169.3c87.6-53.8,2018-1256.7,2018-1256.7s-104,114.2,91.9,231.7
				C5056.8,1355.8,5313,1314.5,5313,1314.5z"/>
			<path class="st9" d="M2468.5,2267.1c0,521.4,641.8,621.9,1002.6,381.2c361.2-240.7,2066-1363.9,2066-1363.9l-90.1-60.2
				c0,0-1604.4,1043.4-2046,1323.9c-190,120.5-427.6,135.8-621.2,35.1c-198.6-103.2-256-356.9-143.7-426.5
				c373.7-231.9,2182.2-1331.9,2182.2-1331.9l-93-54.6c0,0-1936.4,1170-2166.5,1316.5C2475.3,2139.7,2468.5,2267.1,2468.5,2267.1z"
				/>
			<path class="st12" d="M3670.3,6097.9c-86.6,56.1-150.5,97-199.2,127.5c-367.8,230-1002.6,140.3-1002.6-381.2v-3577
				c0,521.4,641.8,621.9,1002.6,381.2c46.6-30.9,115.2-76.5,199.7-132.6L3670.3,6097.9z"/>
			<path class="st13" d="M3670.3,6097.9c-86.6,56.1-150.5,97-199.2,127.5c-367.8,230-1002.6,140.3-1002.6-381.2v-3577
				c0,521.4,641.8,621.9,1002.6,381.2c46.6-30.9,115.2-76.5,199.7-132.6L3670.3,6097.9z"/>
		</g>
	</g>
</g>
</svg>
