<?xml version="1.0" encoding="UTF-8"?>
<svg id="Ebene_1" data-name="Ebene 1" xmlns="http://www.w3.org/2000/svg" viewBox="0 0 595.28 368.5">
  <defs>
    <style>
      .cls-1 {
        fill: #ffd30d;
      }

      .cls-2 {
        fill: #1d1719;
      }

      .cls-3 {
        fill: #5b6f7f;
      }

      .cls-4 {
        fill: #e84d3e;
      }

      .cls-5 {
        fill: #010000;
      }

      .cls-6 {
        fill: #1d1d1b;
      }
    </style>
  </defs>
  <g>
    <path class="cls-2" d="m397.01,32.03v99.36h-12.98V32.03h12.98Z"/>
    <path class="cls-4" d="m397.01,131.39v99.37h-12.98v-99.37h12.98Z"/>
    <path class="cls-1" d="m397.01,230.75v99.37h-12.98v-99.37h12.98Z"/>
    <path class="cls-3" d="m31.01,118.95c5.9,3.74,12.82,5.9,22.18,5.9,12.38,0,22.61-6.34,22.61-20.59,0-19.73-46.08-22.18-46.08-48.53,0-16.13,14.11-26.21,31.82-26.21,4.9,0,12.82.72,19.73,3.31l-1.58,9.07c-4.46-2.45-11.52-3.74-18.29-3.74-10.37,0-21.74,4.32-21.74,17.28,0,20.16,46.08,20.3,46.08,49.68,0,20.3-17.42,28.37-32.98,28.37-9.79,0-17.42-2.02-22.75-4.32l1.01-10.22Z"/>
    <path class="cls-3" d="m153.98,129.46c-6.34,2.59-14.54,4.03-21.31,4.03-24.34,0-33.41-16.42-33.41-38.45s12.38-38.45,30.96-38.45c20.74,0,29.23,16.7,29.23,36.43v4.61h-50.25c0,15.55,8.35,28.08,24.19,28.08,6.62,0,16.27-2.74,20.59-5.47v9.22Zm-4.46-39.6c0-12.82-5.18-25.49-18.72-25.49s-21.6,13.39-21.6,25.49h40.32Z"/>
    <path class="cls-3" d="m224.54,68.12c-4.9-2.16-10.8-3.74-15.7-3.74-17.71,0-27.65,12.82-27.65,30.67,0,16.7,10.08,30.67,26.64,30.67,5.76,0,11.09-1.3,16.56-3.31l.86,8.5c-6.19,2.16-11.95,2.59-18.86,2.59-23.62,0-35.14-18-35.14-38.45,0-22.61,14.54-38.45,36.29-38.45,8.78,0,15.12,2.02,17.71,2.88l-.72,8.64Z"/>
    <path class="cls-3" d="m297.98,114.49c0,5.62,0,11.38.58,17.28h-8.78v-13.1h-.29c-3.02,6.62-8.5,14.83-23.76,14.83-18.14,0-25.06-12.1-25.06-28.22v-46.94h9.07v44.64c0,13.82,4.9,22.75,17.42,22.75,16.56,0,21.74-14.54,21.74-26.78v-40.61h9.07v56.16Z"/>
    <path class="cls-3" d="m320.73,74.74c0-8.06,0-11.09-.58-16.42h9.07v14.11h.29c3.31-8.21,9.5-15.84,18.86-15.84,2.16,0,4.75.43,6.34.86v9.5c-1.87-.58-4.32-.86-6.62-.86-14.4,0-18.29,16.13-18.29,29.38v36.29h-9.07v-57.02Z"/>
    <path class="cls-3" d="m538.69,142.71c-3.46,10.08-8.64,20.16-18.87,20.16-3.31,0-6.77-.43-9.79-1.15l.86-7.78c1.73.58,3.46,1.15,6.77,1.15,7.78,0,10.37-6.48,13.25-15.98l1.87-6.48-26.06-74.3h9.94l20.59,61.34-.14-.14h.29l21.17-61.2h9.5l-29.37,84.38Z"/>
    <path class="cls-6" d="m445.07,43.93h-31.25v-12.67h76.89v12.67h-31.25v87.84h-14.4V43.93Z"/>
    <g>
      <path class="cls-5" d="m437.97,233.74v-16.27c0-3.46-1.1-6.19-4.39-6.19-2.8,0-5.57,2.83-5.57,8.93v13.54h-2.56v-16.27c0-3.46-1.1-6.19-4.39-6.19-2.8,0-5.57,2.83-5.57,8.93v13.54h-2.56v-18.72c0-1.87,0-3.79-.16-5.76h2.48v4.13l.08.05c.81-1.68,2.03-4.75,6.46-4.75,1.83,0,4.83.91,5.48,5.18h.08c.93-2.88,3.37-5.18,6.62-5.18,4.18,0,6.54,3.46,6.54,8.21v16.85h-2.56Z"/>
      <path class="cls-5" d="m458.69,229.81h-.08c-1.14,2.93-4.02,4.51-6.58,4.51-5.89,0-6.83-4.7-6.83-6.91,0-8.21,7.39-8.59,12.76-8.59h.49v-1.25c0-4.18-1.26-6.29-4.71-6.29-2.15,0-4.18.58-6.09,2.02v-2.93c1.58-.91,4.27-1.68,6.09-1.68,5.12,0,7.27,2.74,7.27,9.12v10.8c0,1.97,0,3.46.2,5.14h-2.52v-3.94Zm-.24-8.4h-.73c-4.43,0-9.71.53-9.71,5.9,0,3.22,1.95,4.42,4.31,4.42,6.01,0,6.13-6.19,6.13-8.83v-1.49Z"/>
      <path class="cls-5" d="m483.51,233.74h-2.56v-3.89h-.08c-1.38,3.12-3.49,4.46-6.46,4.46-5.69,0-8.53-5.57-8.53-12.82s2.44-12.82,8.53-12.82c4.06,0,6.09,3.5,6.46,4.7h.08v-15.65h2.56v36Zm-8.69-2.02c4.55,0,6.13-5.76,6.13-10.22s-1.58-10.22-6.13-10.22c-4.88,0-6.13,5.47-6.13,10.22s1.26,10.22,6.13,10.22Z"/>
      <path class="cls-5" d="m503.58,232.98c-1.79.86-4.1,1.34-6.01,1.34-6.87,0-9.42-5.47-9.42-12.82s3.49-12.82,8.73-12.82c5.85,0,8.25,5.57,8.25,12.14v1.54h-14.18c0,5.18,2.36,9.36,6.83,9.36,1.87,0,4.59-.91,5.81-1.82v3.07Zm-1.26-13.2c0-4.27-1.46-8.5-5.28-8.5s-6.09,4.46-6.09,8.5h11.38Z"/>
      <path class="cls-5" d="m415.5,250.74h-2.56v-4.03h2.56v4.03Zm-2.56,6.53h2.56v24.48h-2.56v-24.48Z"/>
      <path class="cls-5" d="m421.96,263.02c0-1.87,0-3.79-.16-5.76h2.48v4.37h.08c.85-2.21,2.4-4.94,6.7-4.94,5.12,0,7.07,4.03,7.07,9.41v15.65h-2.56v-14.88c0-4.61-1.38-7.58-4.92-7.58-4.67,0-6.13,4.85-6.13,8.93v13.54h-2.56v-18.72Z"/>
      <path class="cls-5" d="m432.65,314.48h-6.58v-2.88h9.38v16.66c-2.88,1.49-5.69,2.06-8.82,2.06-8.94,0-14.3-6.96-14.3-17.33s5.53-17.33,14.3-17.33c2.15,0,5.69.43,7.6,1.58l-.33,3.07c-2.19-1.44-4.79-1.78-7.27-1.78-7.35,0-11.5,6.14-11.5,14.45s4.02,14.45,11.5,14.45c1.75,0,4.67-.24,6.01-1.2v-11.76Z"/>
      <path class="cls-5" d="m456.17,328.98c-1.79.86-4.1,1.34-6.01,1.34-6.87,0-9.42-5.47-9.42-12.82s3.49-12.82,8.73-12.82c5.85,0,8.25,5.57,8.25,12.14v1.54h-14.18c0,5.18,2.36,9.36,6.83,9.36,1.87,0,4.59-.91,5.81-1.82v3.07Zm-1.26-13.2c0-4.27-1.46-8.5-5.28-8.5s-6.09,4.46-6.09,8.5h11.38Z"/>
      <path class="cls-5" d="m462.59,310.74c0-2.69,0-3.7-.16-5.47h2.56v4.7h.08c.93-2.74,2.68-5.28,5.32-5.28.61,0,1.34.14,1.79.29v3.17c-.53-.19-1.22-.29-1.87-.29-4.06,0-5.16,5.38-5.16,9.79v12.1h-2.56v-19.01Z"/>
      <path class="cls-5" d="m501.14,329.74v-16.27c0-3.46-1.1-6.19-4.39-6.19-2.8,0-5.57,2.83-5.57,8.93v13.54h-2.56v-16.27c0-3.46-1.1-6.19-4.39-6.19-2.8,0-5.57,2.83-5.57,8.93v13.54h-2.56v-18.72c0-1.87,0-3.79-.16-5.76h2.48v4.13l.08.05c.81-1.68,2.03-4.75,6.46-4.75,1.83,0,4.83.91,5.48,5.18h.08c.93-2.88,3.37-5.18,6.62-5.18,4.18,0,6.54,3.46,6.54,8.21v16.85h-2.56Z"/>
      <path class="cls-5" d="m521.86,325.81h-.08c-1.14,2.93-4.02,4.51-6.58,4.51-5.89,0-6.83-4.7-6.83-6.91,0-8.21,7.39-8.59,12.76-8.59h.49v-1.25c0-4.18-1.26-6.29-4.71-6.29-2.15,0-4.18.58-6.09,2.02v-2.93c1.58-.91,4.27-1.68,6.09-1.68,5.12,0,7.27,2.74,7.27,9.12v10.8c0,1.97,0,3.46.2,5.14h-2.52v-3.94Zm-.24-8.4h-.73c-4.43,0-9.71.53-9.71,5.9,0,3.22,1.95,4.42,4.31,4.42,6.01,0,6.13-6.19,6.13-8.83v-1.49Z"/>
      <path class="cls-5" d="m530.27,311.02c0-1.87,0-3.79-.16-5.76h2.48v4.37h.08c.85-2.21,2.4-4.94,6.7-4.94,5.12,0,7.07,4.03,7.07,9.41v15.65h-2.56v-14.88c0-4.61-1.38-7.58-4.92-7.58-4.67,0-6.13,4.85-6.13,8.93v13.54h-2.56v-18.72Z"/>
      <path class="cls-5" d="m559.03,333.39c-.97,3.36-2.44,6.72-5.32,6.72-.93,0-1.91-.14-2.76-.38l.24-2.59c.49.19.97.38,1.91.38,2.19,0,2.92-2.16,3.74-5.33l.53-2.16-7.35-24.77h2.8l5.81,20.45-.04-.05h.08l5.97-20.4h2.68l-8.29,28.13Z"/>
    </g>
  </g>
  <g>
    <path class="cls-6" d="m110.66,283.24v2h-5.66v14.8h-2.3v-14.8h-5.66v-2h13.62Z"/>
    <path class="cls-6" d="m111.75,287.79h1.96v2.12c.16-.41.55-.91,1.18-1.5.62-.59,1.35-.89,2.16-.89.04,0,.1,0,.19.01.09,0,.25.02.47.05v2.17c-.12-.02-.23-.04-.34-.05-.1,0-.22-.01-.34-.01-1.04,0-1.83.33-2.39,1-.56.67-.83,1.44-.83,2.3v7.05h-2.06v-12.25Z"/>
    <path class="cls-6" d="m121.62,287.79v8.13c0,.62.1,1.14.29,1.53.36.73,1.02,1.1,1.99,1.1,1.4,0,2.35-.64,2.85-1.92.27-.69.41-1.63.41-2.82v-6.02h2.06v12.25h-1.94l.02-1.81c-.26.46-.59.86-.98,1.18-.77.64-1.71.96-2.81.96-1.71,0-2.88-.58-3.5-1.75-.34-.62-.5-1.46-.5-2.5v-8.33h2.1Z"/>
    <path class="cls-6" d="m133.88,296.2c.06.69.24,1.21.52,1.58.53.66,1.45,1,2.75,1,.78,0,1.46-.17,2.05-.5.59-.33.89-.84.89-1.54,0-.53-.24-.93-.71-1.2-.3-.17-.9-.36-1.79-.58l-1.66-.41c-1.06-.26-1.84-.55-2.35-.87-.9-.56-1.35-1.33-1.35-2.31,0-1.16.42-2.1,1.27-2.81.85-.72,1.98-1.08,3.41-1.08,1.87,0,3.22.54,4.04,1.62.52.69.77,1.43.75,2.22h-1.94c-.04-.46-.21-.88-.5-1.26-.48-.54-1.32-.81-2.52-.81-.8,0-1.4.15-1.81.44-.41.3-.61.69-.61,1.17,0,.53.27.96.81,1.28.31.19.77.36,1.37.5l1.39.33c1.51.36,2.52.71,3.03,1.04.8.53,1.2,1.35,1.2,2.48s-.42,2.03-1.26,2.82c-.84.79-2.11,1.19-3.83,1.19-1.84,0-3.15-.41-3.92-1.24-.77-.83-1.18-1.85-1.23-3.07h1.98Z"/>
    <path class="cls-6" d="m144.85,284.37h2.08v3.42h1.96v1.68h-1.96v7.99c0,.43.14.71.43.86.16.08.43.13.8.13.1,0,.21,0,.32,0,.11,0,.25-.02.4-.04v1.64c-.24.07-.48.12-.74.15-.26.03-.53.05-.83.05-.96,0-1.61-.25-1.96-.74-.34-.49-.51-1.13-.51-1.92v-8.11h-1.66v-1.68h1.66v-3.42Z"/>
    <path class="cls-6" d="m159.36,294.62c.05.95.27,1.73.65,2.32.73,1.11,2.01,1.67,3.84,1.67.82,0,1.57-.12,2.25-.37,1.31-.47,1.96-1.32,1.96-2.54,0-.92-.28-1.57-.83-1.96-.56-.38-1.44-.71-2.64-1l-2.2-.51c-1.44-.34-2.46-.71-3.06-1.11-1.03-.7-1.55-1.75-1.55-3.14,0-1.51.51-2.75,1.52-3.72,1.02-.97,2.46-1.45,4.32-1.45,1.71,0,3.17.43,4.37,1.28,1.2.85,1.8,2.21,1.8,4.08h-2.14c-.11-.9-.34-1.59-.7-2.07-.67-.88-1.79-1.31-3.39-1.31-1.29,0-2.21.28-2.77.85-.56.56-.84,1.22-.84,1.97,0,.82.33,1.43,1,1.81.44.24,1.42.55,2.96.92l2.28.54c1.1.26,1.95.61,2.55,1.06,1.03.79,1.55,1.93,1.55,3.42,0,1.86-.66,3.19-1.98,3.99s-2.85,1.2-4.6,1.2c-2.04,0-3.63-.53-4.78-1.6-1.15-1.06-1.72-2.5-1.7-4.31h2.14Z"/>
    <path class="cls-6" d="m180.85,288.13c.81.41,1.43.94,1.85,1.58.41.62.68,1.34.82,2.16.12.56.18,1.46.18,2.7h-8.91c.04,1.25.33,2.25.87,3,.54.75,1.39,1.13,2.53,1.13,1.07,0,1.92-.36,2.55-1.07.36-.41.61-.89.76-1.44h2.02c-.05.45-.23.95-.53,1.5s-.64,1-1.01,1.36c-.62.61-1.39,1.02-2.3,1.24-.49.12-1.05.18-1.67.18-1.52,0-2.8-.55-3.85-1.66-1.05-1.11-1.58-2.66-1.58-4.66s.53-3.56,1.59-4.79c1.06-1.23,2.45-1.84,4.16-1.84.86,0,1.7.2,2.51.61Zm.74,4.81c-.08-.89-.28-1.61-.58-2.14-.56-.99-1.49-1.49-2.8-1.49-.94,0-1.72.34-2.36,1.02-.64.68-.97,1.55-1.01,2.6h6.75Z"/>
    <path class="cls-6" d="m192.95,292.63c.47-.06.79-.26.95-.59.09-.18.14-.45.14-.79,0-.7-.25-1.22-.75-1.53-.5-.32-1.21-.48-2.14-.48-1.07,0-1.83.29-2.28.87-.25.32-.41.8-.49,1.44h-1.92c.04-1.51.53-2.57,1.47-3.16.94-.59,2.03-.89,3.27-.89,1.44,0,2.61.27,3.51.82.89.55,1.34,1.4,1.34,2.56v7.06c0,.21.04.38.13.51.09.13.27.19.55.19.09,0,.19,0,.31-.02.11-.01.24-.03.37-.05v1.52c-.32.09-.56.15-.73.17-.17.02-.4.03-.69.03-.71,0-1.22-.25-1.54-.75-.17-.27-.29-.64-.35-1.13-.42.55-1.02,1.03-1.81,1.43-.79.4-1.65.61-2.6.61-1.14,0-2.06-.34-2.78-1.03-.72-.69-1.08-1.55-1.08-2.59,0-1.13.35-2.01,1.06-2.64.71-.62,1.64-1.01,2.79-1.15l3.28-.41Zm-4.33,5.56c.43.34.95.51,1.54.51.72,0,1.43-.17,2.1-.5,1.14-.56,1.72-1.46,1.72-2.73v-1.66c-.25.16-.57.29-.97.4-.4.11-.78.18-1.16.23l-1.24.16c-.75.1-1.31.25-1.68.47-.64.36-.95.93-.95,1.71,0,.59.22,1.06.65,1.4Z"/>
    <path class="cls-6" d="m199.54,283.24h2.06v16.8h-2.06v-16.8Z"/>
  </g>
  <g>
    <path class="cls-6" d="m31.32,317.04l2.36,9.65,2.39-9.65h2.31l2.4,9.59,2.5-9.59h2.06l-3.56,12.25h-2.14l-2.49-9.48-2.41,9.48h-2.14l-3.53-12.25h2.25Z"/>
    <path class="cls-6" d="m48.4,317.04l2.36,9.65,2.39-9.65h2.31l2.4,9.59,2.5-9.59h2.06l-3.56,12.25h-2.14l-2.49-9.48-2.41,9.48h-2.14l-3.53-12.25h2.25Z"/>
    <path class="cls-6" d="m65.48,317.04l2.36,9.65,2.39-9.65h2.31l2.4,9.59,2.5-9.59h2.06l-3.56,12.25h-2.14l-2.49-9.48-2.41,9.48h-2.14l-3.53-12.25h2.25Z"/>
    <path class="cls-6" d="m80.81,326.79h2.39v2.49h-2.39v-2.49Z"/>
    <path class="cls-6" d="m87.4,313.62h2.08v3.42h1.96v1.68h-1.96v7.99c0,.43.14.71.43.86.16.08.43.13.8.13.1,0,.21,0,.32,0,.11,0,.25-.02.4-.04v1.64c-.24.07-.48.12-.74.15-.26.03-.53.05-.83.05-.96,0-1.61-.25-1.96-.74-.34-.49-.51-1.13-.51-1.92v-8.11h-1.66v-1.68h1.66v-3.42Z"/>
    <path class="cls-6" d="m101.23,317.38c.81.41,1.43.94,1.85,1.58.41.62.68,1.34.82,2.16.12.56.18,1.46.18,2.7h-8.91c.04,1.25.33,2.25.87,3,.54.75,1.39,1.13,2.53,1.13,1.07,0,1.92-.36,2.55-1.07.36-.41.61-.89.76-1.44h2.02c-.05.45-.23.95-.53,1.5-.3.55-.64,1-1.01,1.36-.62.61-1.39,1.02-2.3,1.24-.49.12-1.05.18-1.67.18-1.52,0-2.8-.55-3.85-1.66-1.05-1.11-1.58-2.66-1.58-4.66s.53-3.56,1.59-4.79c1.06-1.23,2.45-1.84,4.16-1.84.86,0,1.7.2,2.51.61Zm.74,4.81c-.08-.89-.28-1.61-.58-2.14-.56-.99-1.49-1.49-2.8-1.49-.94,0-1.72.34-2.36,1.02-.64.68-.97,1.55-1.01,2.6h6.75Z"/>
    <path class="cls-6" d="m106.91,312.49h2.06v16.8h-2.06v-16.8Z"/>
    <path class="cls-6" d="m119.79,317.38c.81.41,1.43.94,1.85,1.58.41.62.68,1.34.82,2.16.12.56.18,1.46.18,2.7h-8.91c.04,1.25.33,2.25.87,3,.54.75,1.39,1.13,2.53,1.13,1.07,0,1.92-.36,2.55-1.07.36-.41.61-.89.76-1.44h2.02c-.05.45-.23.95-.53,1.5-.3.55-.64,1-1.01,1.36-.62.61-1.39,1.02-2.3,1.24-.49.12-1.05.18-1.67.18-1.52,0-2.8-.55-3.85-1.66-1.05-1.11-1.58-2.66-1.58-4.66s.53-3.56,1.59-4.79c1.06-1.23,2.45-1.84,4.16-1.84.86,0,1.7.2,2.51.61Zm.74,4.81c-.08-.89-.28-1.61-.58-2.14-.56-.99-1.49-1.49-2.8-1.49-.94,0-1.72.34-2.36,1.02-.64.68-.97,1.55-1.01,2.6h6.75Z"/>
    <path class="cls-6" d="m125.82,313.62h2.08v3.42h1.96v1.68h-1.96v7.99c0,.43.14.71.43.86.16.08.43.13.8.13.1,0,.21,0,.32,0,.11,0,.25-.02.4-.04v1.64c-.24.07-.48.12-.74.15s-.53.05-.83.05c-.96,0-1.61-.25-1.96-.74-.34-.49-.51-1.13-.51-1.92v-8.11h-1.66v-1.68h1.66v-3.42Z"/>
    <path class="cls-6" d="m132.14,317.04h1.96v2.12c.16-.41.55-.91,1.18-1.5.62-.59,1.35-.89,2.16-.89.04,0,.1,0,.19.01.09,0,.25.02.47.05v2.17c-.12-.02-.23-.04-.34-.05-.1,0-.22-.01-.34-.01-1.04,0-1.83.33-2.39,1-.56.67-.83,1.44-.83,2.3v7.04h-2.06v-12.25Z"/>
    <path class="cls-6" d="m142.1,317.04v8.13c0,.62.1,1.14.29,1.53.36.73,1.02,1.1,1.99,1.1,1.4,0,2.35-.64,2.85-1.92.27-.69.41-1.63.41-2.82v-6.02h2.06v12.25h-1.94l.02-1.81c-.26.46-.59.86-.98,1.18-.77.64-1.71.96-2.81.96-1.71,0-2.88-.58-3.5-1.75-.34-.62-.5-1.46-.5-2.5v-8.33h2.1Z"/>
    <path class="cls-6" d="m154.46,325.44c.06.69.24,1.21.52,1.58.53.66,1.45,1,2.75,1,.78,0,1.46-.17,2.05-.5.59-.33.89-.84.89-1.54,0-.53-.24-.93-.71-1.2-.3-.17-.9-.36-1.79-.58l-1.66-.41c-1.06-.26-1.84-.55-2.35-.87-.9-.56-1.35-1.33-1.35-2.31,0-1.16.42-2.1,1.27-2.81.85-.72,1.98-1.08,3.41-1.08,1.87,0,3.22.54,4.04,1.62.52.69.77,1.43.75,2.22h-1.94c-.04-.46-.21-.88-.5-1.26-.48-.54-1.32-.81-2.52-.81-.8,0-1.4.15-1.81.44s-.61.69-.61,1.17c0,.53.27.96.81,1.28.31.19.77.36,1.37.5l1.39.33c1.51.36,2.52.71,3.03,1.04.8.53,1.2,1.35,1.2,2.48s-.42,2.03-1.26,2.82c-.84.79-2.11,1.19-3.83,1.19-1.84,0-3.15-.41-3.92-1.24-.77-.83-1.18-1.85-1.23-3.07h1.98Z"/>
    <path class="cls-6" d="m165.52,313.62h2.08v3.42h1.96v1.68h-1.96v7.99c0,.43.14.71.43.86.16.08.43.13.8.13.1,0,.21,0,.32,0,.11,0,.25-.02.4-.04v1.64c-.24.07-.48.12-.74.15-.26.03-.53.05-.83.05-.96,0-1.61-.25-1.96-.74-.34-.49-.51-1.13-.51-1.92v-8.11h-1.66v-1.68h1.66v-3.42Z"/>
    <path class="cls-6" d="m172.27,326.79h2.39v2.49h-2.39v-2.49Z"/>
    <path class="cls-6" d="m185.18,317.42c.36.23.78.63,1.24,1.2v-6.19h1.98v16.86h-1.85v-1.7c-.48.75-1.04,1.3-1.7,1.64-.65.33-1.4.5-2.24.5-1.36,0-2.54-.57-3.53-1.72-1-1.15-1.49-2.67-1.49-4.58,0-1.78.45-3.33,1.36-4.64.91-1.31,2.2-1.96,3.89-1.96.93,0,1.72.2,2.35.59Zm-4.59,9.18c.55.88,1.44,1.33,2.66,1.33.95,0,1.73-.41,2.34-1.23.61-.82.92-2,.92-3.53s-.31-2.69-.94-3.44c-.63-.74-1.41-1.12-2.33-1.12-1.03,0-1.87.4-2.51,1.19-.64.79-.96,1.96-.96,3.5,0,1.31.28,2.41.83,3.29Z"/>
    <path class="cls-6" d="m199.21,317.38c.81.41,1.43.94,1.85,1.58.41.62.68,1.34.82,2.16.12.56.18,1.46.18,2.7h-8.91c.04,1.25.33,2.25.87,3,.54.75,1.39,1.13,2.53,1.13,1.07,0,1.92-.36,2.55-1.07.36-.41.61-.89.76-1.44h2.02c-.05.45-.23.95-.53,1.5-.3.55-.64,1-1.01,1.36-.62.61-1.39,1.02-2.3,1.24-.49.12-1.05.18-1.67.18-1.52,0-2.8-.55-3.85-1.66-1.05-1.11-1.58-2.66-1.58-4.66s.53-3.56,1.59-4.79c1.06-1.23,2.45-1.84,4.16-1.84.86,0,1.7.2,2.51.61Zm.74,4.81c-.08-.89-.28-1.61-.58-2.14-.56-.99-1.49-1.49-2.8-1.49-.94,0-1.72.34-2.36,1.02-.64.68-.97,1.55-1.01,2.6h6.75Z"/>
    <path class="cls-6" d="m208.66,312.49h1.74l-5.33,16.8h-1.74l5.33-16.8Z"/>
    <path class="cls-6" d="m211.5,312.49h2.09v2.33h-2.09v-2.33Zm0,4.61h2.09v12.19h-2.09v-12.19Z"/>
    <path class="cls-6" d="m217.28,313.62h2.08v3.42h1.96v1.68h-1.96v7.99c0,.43.14.71.43.86.16.08.43.13.8.13.1,0,.21,0,.32,0,.11,0,.25-.02.4-.04v1.64c-.24.07-.48.12-.74.15-.26.03-.53.05-.83.05-.96,0-1.61-.25-1.96-.74-.34-.49-.51-1.13-.51-1.92v-8.11h-1.66v-1.68h1.66v-3.42Z"/>
    <path class="cls-6" d="m224.77,325.44c.06.69.24,1.21.52,1.58.53.66,1.45,1,2.75,1,.78,0,1.46-.17,2.05-.5.59-.33.89-.84.89-1.54,0-.53-.24-.93-.71-1.2-.3-.17-.9-.36-1.79-.58l-1.66-.41c-1.06-.26-1.84-.55-2.35-.87-.9-.56-1.35-1.33-1.35-2.31,0-1.16.42-2.1,1.27-2.81.85-.72,1.98-1.08,3.41-1.08,1.87,0,3.22.54,4.04,1.62.52.69.77,1.43.75,2.22h-1.94c-.04-.46-.21-.88-.5-1.26-.48-.54-1.32-.81-2.52-.81-.8,0-1.4.15-1.81.44-.41.3-.61.69-.61,1.17,0,.53.27.96.81,1.28.31.19.77.36,1.37.5l1.39.33c1.51.36,2.52.71,3.03,1.04.8.53,1.2,1.35,1.2,2.48s-.42,2.03-1.26,2.82c-.84.79-2.11,1.19-3.83,1.19-1.84,0-3.15-.41-3.92-1.24-.77-.83-1.18-1.85-1.23-3.07h1.98Z"/>
    <path class="cls-6" d="m235.42,317.04h2.04v1.74c.49-.6.93-1.04,1.33-1.32.68-.46,1.45-.7,2.31-.7.98,0,1.76.24,2.36.72.33.27.64.68.92,1.21.46-.66,1-1.14,1.61-1.46.62-.32,1.31-.47,2.08-.47,1.65,0,2.77.59,3.36,1.78.32.64.48,1.5.48,2.58v8.15h-2.14v-8.51c0-.82-.2-1.38-.61-1.68-.41-.31-.91-.46-1.49-.46-.81,0-1.5.27-2.09.81-.58.54-.87,1.44-.87,2.71v7.12h-2.09v-7.99c0-.83-.1-1.44-.3-1.82-.31-.57-.9-.86-1.75-.86-.78,0-1.49.3-2.12.9-.64.6-.96,1.69-.96,3.27v6.5h-2.06v-12.25Z"/>
    <path class="cls-6" d="m255.09,312.49h2.09v2.33h-2.09v-2.33Zm0,4.61h2.09v12.19h-2.09v-12.19Z"/>
    <path class="cls-6" d="m267.27,317.53c.39.27.78.66,1.18,1.17v-1.54h1.9v11.14c0,1.56-.23,2.78-.68,3.68-.85,1.66-2.46,2.49-4.82,2.49-1.31,0-2.42-.3-3.32-.89s-1.4-1.51-1.5-2.77h2.09c.1.55.3.97.59,1.27.46.46,1.19.69,2.18.69,1.57,0,2.6-.56,3.08-1.67.29-.66.42-1.83.4-3.51-.41.62-.9,1.09-1.48,1.4-.58.3-1.34.46-2.29.46-1.32,0-2.48-.47-3.47-1.41-.99-.94-1.49-2.5-1.49-4.67,0-2.05.5-3.65,1.5-4.8,1-1.15,2.2-1.73,3.62-1.73.96,0,1.79.24,2.51.71Zm.25,2.21c-.62-.73-1.41-1.1-2.38-1.1-1.44,0-2.43.68-2.96,2.04-.28.72-.42,1.67-.42,2.85,0,1.38.28,2.43.84,3.15.56.72,1.31,1.08,2.25,1.08,1.47,0,2.51-.67,3.11-2,.33-.75.5-1.63.5-2.64,0-1.52-.31-2.64-.93-3.37Z"/>
  </g>
</svg>