<?xml version="1.0" encoding="UTF-8"?>
<svg id="Livello_1" data-name="Livello 1" xmlns="http://www.w3.org/2000/svg" viewBox="0 0 8000 8000">
  <defs>
    <style>
      .cls-1 {
        fill: #d8d8d8;
      }

      .cls-2 {
        fill: #4f5d73;
      }

      .cls-3 {
        fill: #2d343f;
      }

      .cls-4 {
        fill: #d72c1d;
      }

      .cls-5 {
        fill: none;
      }

      .cls-6 {
        fill: #9e1916;
      }
    </style>
  </defs>
  <rect class="cls-5" y="500" width="8000" height="7000"/>
  <g>
    <path class="cls-4" d="m3668.45,5139.33l-77.72,24.42c-33.05,10.39-68.6-8.16-78.99-41.21l-115.5-367.53c-10.39-33.05,8.16-68.6,41.21-78.99l77.72-24.42c33.05-10.39,68.6,8.16,78.99,41.21l115.5,367.53c10.39,33.05-8.16,68.6-41.21,78.99Z"/>
    <polygon class="cls-3" points="6054.87 3065.3 6009.41 3483.54 6005.47 3483.54 6007.44 3501.65 6005.47 3519.76 6009.41 3519.76 6054.87 3938 6252.46 3770.05 6252.46 3519.76 6252.46 3483.54 6252.46 3233.25 6054.87 3065.3"/>
    <path class="cls-2" d="m3725.45,5953.07l-400.54,125.87c-77.13,24.24-160.07-19.04-184.31-96.17l-630.63-2006.71c-24.24-77.13,19.04-160.07,96.17-184.31l400.54-125.87c77.13-24.24,160.07,19.04,184.31,96.17l630.63,2006.71c24.24,77.13-19.04,160.07-96.17,184.31Z"/>
    <path class="cls-1" d="m4484,2713.09h-1560.99v1577.12h1560.99s895.76,98.8,1435.84,638.88v-2854.89c-540.09,540.09-1435.84,638.88-1435.84,638.88Z"/>
    <rect class="cls-2" x="5919.85" y="1914.32" width="171.25" height="3174.66" rx="52" ry="52"/>
    <rect class="cls-6" x="1747.54" y="3114.88" width="363.06" height="770.57"/>
    <polygon class="cls-4" points="2297.3 2713.09 1915.29 2938.78 1915.29 3490.85 1915.29 3509.49 1915.29 4061.56 2297.3 4287.25 2923.02 4287.25 2923.02 3509.49 2923.02 3490.85 2923.02 2713.09 2297.3 2713.09"/>
  </g>
</svg>